/* XPM */
static char *_MQXjg0h[] = {
/* columns rows colors chars-per-pixel */
"64 64 228 2 ",
"   c #362A0A",
".  c #3C340D",
"X  c #43320B",
"o  c #4A390C",
"O  c #553E0D",
"+  c #422F0A",
"@  c #59440D",
"#  c #584A12",
"$  c #5D5214",
"%  c #5B5719",
"&  c #4F4410",
"*  c #66490C",
"=  c #6E550E",
"-  c #785A0D",
";  c #635413",
":  c #6B5614",
">  c #655B15",
",  c #6D5C15",
"<  c #645C1B",
"1  c #6B5E1A",
"2  c #735D14",
"3  c #7A5A11",
"4  c #654E10",
"5  c #6C631B",
"6  c #6B6017",
"7  c #746216",
"8  c #7C6515",
"9  c #73641B",
"0  c #7B661A",
"q  c #74691C",
"w  c #7C6B1B",
"e  c #796916",
"r  c #7E6E19",
"t  c #655E25",
"y  c #6C6522",
"u  c #6D6827",
"i  c #756A23",
"p  c #7B6D22",
"a  c #766C28",
"s  c #7C7227",
"d  c #7B7435",
"f  c #726D32",
"g  c #766740",
"h  c #835D10",
"j  c #936B0E",
"k  c #836514",
"l  c #836B16",
"z  c #8B6C15",
"x  c #826C1B",
"c  c #8B6D1B",
"v  c #8A6513",
"b  c #936C13",
"n  c #9A6D14",
"m  c #936B18",
"M  c #8B7116",
"N  c #85721C",
"B  c #8B741B",
"V  c #8C791B",
"C  c #887618",
"Z  c #937315",
"A  c #9C7314",
"S  c #9C7A15",
"D  c #92741A",
"F  c #937B1C",
"G  c #9B7C1B",
"H  c #9A7617",
"J  c #916B0F",
"K  c #A37514",
"L  c #A47B15",
"P  c #AB7C15",
"I  c #A47D1A",
"U  c #A97D19",
"Y  c #A97615",
"T  c #B17D15",
"R  c #A5790D",
"E  c #847424",
"W  c #8B7521",
"Q  c #867924",
"!  c #8D7A23",
"~  c #8A7D2A",
"^  c #85772B",
"/  c #937D22",
"(  c #997D26",
")  c #867933",
"_  c #8E732A",
"`  c #A67E21",
"'  c #897C51",
"]  c #9C821D",
"[  c #98851C",
"{  c #8C801B",
"}  c #AC8216",
"|  c #A3831C",
" . c #AB851A",
".. c #A48A1C",
"X. c #AC8B1D",
"o. c #A98715",
"O. c #B28316",
"+. c #BB8416",
"@. c #B3831A",
"#. c #B38B1B",
"$. c #BB8B1B",
"%. c #BB8818",
"&. c #AA941E",
"*. c #B4931D",
"=. c #BB951D",
"-. c #BB9C1E",
";. c #B69A1B",
":. c #BCA21D",
">. c #BFAA1E",
",. c #8D812A",
"<. c #948225",
"1. c #9B8423",
"2. c #9C8924",
"3. c #94842B",
"4. c #9C8B2B",
"5. c #99852B",
"6. c #8D8237",
"7. c #998937",
"8. c #9D9036",
"9. c #A28522",
"0. c #A48A24",
"q. c #AB8C23",
"w. c #A38C2A",
"e. c #A88928",
"r. c #B18D23",
"t. c #B88822",
"y. c #AC9224",
"u. c #A6932C",
"i. c #AB932C",
"p. c #AB9A28",
"a. c #B49323",
"s. c #BB9523",
"d. c #B59B23",
"f. c #BB9C23",
"g. c #B3952B",
"h. c #B49B2D",
"j. c #BA9C2C",
"k. c #BB932B",
"l. c #A68A35",
"z. c #A49233",
"x. c #AA9637",
"c. c #B69835",
"v. c #BE8D35",
"b. c #BDA422",
"n. c #BCA626",
"m. c #BAA438",
"M. c #AFA03F",
"N. c #C38C15",
"B. c #C38B1A",
"V. c #C58915",
"C. c #C5931B",
"Z. c #CB931A",
"A. c #C8991B",
"S. c #D39B1B",
"D. c #D5981A",
"F. c #CA8B0F",
"G. c #C4AB1F",
"H. c #C7A81D",
"J. c #C9B31D",
"K. c #D4AF1D",
"L. c #C69825",
"P. c #C99B30",
"I. c #C4AC23",
"U. c #CBAD21",
"Y. c #C5A729",
"T. c #D7A325",
"R. c #C5B225",
"E. c #CBB424",
"W. c #CBB528",
"Q. c #D3BC24",
"!. c #D2BC2B",
"~. c #D5B628",
"^. c #C3A738",
"/. c #CAB336",
"(. c #D4BD39",
"). c #D3A13E",
"_. c #E0AA24",
"`. c #DCC51D",
"'. c #D6C325",
"]. c #D9C425",
"[. c #DAC42A",
"{. c #DCCA2B",
"}. c #D9C727",
"|. c #DCC735",
" X c #DED029",
".X c #E2CA26",
"XX c #E7D528",
"oX c #E2CD37",
"OX c #E7D336",
"+X c #FBD62B",
"@X c #F7EB30",
"#X c #958A47",
"$X c #968955",
"%X c #928B50",
"&X c #AA9849",
"*X c #B79A47",
"=X c #A59659",
"-X c #A68E4A",
";X c #B8A548",
":X c #B7A559",
">X c #AAA15D",
",X c #9B9062",
"<X c #A49A68",
"1X c #A8A267",
"2X c #B3AA78",
"3X c #B2A96E",
"4X c #C7A849",
"5X c #D5B848",
"6X c #C8A953",
"7X c #CCB859",
"8X c #D3B756",
"9X c #CEB547",
"0X c #C9B566",
"qX c #C8B16D",
"wX c #C09E41",
"eX c #D7C553",
"rX c #D6C467",
"tX c #D6C76E",
"yX c #EADB5F",
"uX c #B9B285",
"iX c #C5BB87",
"pX c #CAC38A",
"aX c #D9CC8C",
"sX c #F8F09B",
"dX c #F7F2AE",
"fX c #E9DB96",
"gX c #F7F4D5",
"hX c None",
/* pixels */
"hXhXhXhXhXhXhXhXhXhXhXhXhXhXhXhXhXhXhXhXhXhXhXhXhXhXhXhXhXhXuXiXqXiXaXhXhXhXhXhXhXhXhXhXhXhXhXhXhXhXhXhXhXhXhXhXhXhXhXhXhXhXhXhX",
"hXhXhXhXhXhXhXhXhXhXhXhXhXhXhXhXhXhXhXhXhXhXhXhX2X=X' _ E N c m m ` v.B.P.6X8XqXhXhXhXhXhXhXhXhXhXhXhXhXhXhXhXhXhXhXhXhXhXhXhXhX",
"hXhXhXhXhXhXhXhXhXhXhXhXhXhXhXhXhXhXhXhXhXuX' c h - - * * O O @ O * = h j o.#.O.t.l.-XhXhXhXhXhXhXhXhXhXhXhXhXhXhXhXhXhXhXhXhXhX",
"hXhXhXhXhXhXhXhXhXhXhXhXhXhXhXhXhXhXhX3Xl.Z h = O             X + o + + + X O 4 v j n m l.6XhXhXhXhXhXhXhXhXhXhXhXhXhXhXhXhXhXhX",
"hXhXhXhXhXhXhXhXhXhXhXhXhXhXhXhXhXqXx.S k 4 .   + O * = h k v v n n K n j h * * o o O = K T v.qXhXhXhXhXhXhXhXhXhXhXhXhXhXhXhXhX",
"hXhXhXhXhXhXhXhXhXhXhXhXhXhXhXfX5XH.S @ . o : l G } G S H m b K T K Y n Y Y v n m h * o O v Y Y *XhXhXhXhXhXhXhXhXhXhXhXhXhXhXhX",
"hXhXhXhXhXhXhXhXhXhXhXhXhXgXyX+XA.2 . * S =.s.a.*.X.9.k.I n n I T ` ` Y T Y n n A Y Y n h @ * n F.B.6XhXhXhXhXhXhXhXhXhXhXhXhXhX",
"hXhXhXhXhXhXhXhXhXhXhXhXdXyX@Xu.o @ G A.U.~.R.s.*.=.#...` ( m ( T m Y Y ` T Y K Y T @.K Y V.m O h V.V.).hXhXhXhXhXhXhXhXhXhXhXhX",
"hXhXhXhXhXhXhXhXhXhXhXsX@XXXN o H Y.Q.U.A.k.|.Y.m.A.G S H o.#.K k Y T t.c n m G ` P.+.Y V.B.T B.3 @ T F.).hXhXhXhXhXhXhXhXhXhXhX",
"hXhXhXhXhXhXhXhXhXhXsX+XOX6 @ r.~.Q.[.U.J.Y.-.b...A.H. .o.A.} n T U C.U 3 c U $.` I U m +.T T V.B.H * K D.T.hXhXhXhXhXhXhXhXhXhX",
"hXhXhXhXhXhXhXhXhXsX+X[.# k ~.~.!.5XOX5XW.I.f.L.E.H.T.L.=.=.=.N.C.V.L.T T T n n m m n K Y T B.Y V.D.$.: A S.P.hXhXhXhXhXhXhXhXhX",
"hXhXhXhXhXhXhXhXsX@XT.# 2 ~.!.|.!.f.E.n.L.}.{.J.U.U.~.~.~.A.L.#.@.L.B.t.L.$.t.n T T Y B.B.t.B.T V.+.L.B.= ( T.P.hXhXhXhXhXhXhXhX",
"hXhXhXhXhXhXhXdX@XXX; k (.!.~.!.W.n.9.n.[.!.[.oXoX~.f.s.S } v Z v b - b h Y K $.B.+.B.T n A n n B.D.V.Z.B.: ` S.).hXhXhXhXhXhXhX",
"hXhXhXhXhXhXhXyX@Xq 3 ~.~.(.[.(.j.I.'.R.W.~.|.OXs.-.] X.X.o.o.} } S z b b h h Z m B.B.Y B.T Y +.L.D.V.Z.N.s.2 T Z.).hXhXhXhXhXhX",
"hXhXhXhXhXhXyXXX,.; U.U.I.i.R.Y.b.W.!.[.|.oX-.f.b.A.J.J.H.-.#.} } S L A K J n z m m K L.B.V.Z.V.T B.U U Z.T.$.3 F.Z.hXhXhXhXhXhX",
"hXhXhXhXhXtXE.&.& d.Q.G.H.J.y...U.E.'.OXQ.-.G.U.[.Q.Q.~.K.-.*.#. .L L n n n Z K Y n n v B.T.Z.D.T m T V.V.Z.Z.L m D.L.hXhXhXhXhX",
"hXhXhXhXhXm.>.& N I.R.R.Y.I.G.R.G.{.|.:.U.U.[..X{.'.Q.Q.K.G.H.#.o.o.L A J n H A K K n n n Y T.L.$.Z.T B.D.F.Z.T.B @.Z.L.hXhXhXhX",
"hXhXhXhX6X:.7 & d.R.R.W./.b.Q.J.!.W.!.I.Q.[.[.{.}.{.].Q.Q.J.E.-.*.o.| S S Z Z G A A } S b P C.A.T.S.Z.$._.L.T.S.L.c Z.Z.hXhXhXhX",
"hXhXhXhX0.C . l &.y.<.:.&.E.Q.Q.oXW.;.n.eX`.!..X{.'. X9X5XJ.J.~.:.#.L A L Z m Y A A K R Y A b T._.Z.D.B.P U I Z.S.K P Z.t.hXhXhX",
"hXhXhX&X[ # & [ ..&.;...] d.Q.|.b.b..Xp.7XOX].oX{.OXeXx.rX'.W.:X9XX.c.a.i.9.` ` 9.e.t.k.P K @.| #.T.A.I K Y %.V.B.C.n Z.+.hXhXhX",
"hXhXhX^ e . > C ] &.f.:.W.R.Y.R.R.Q.XXp.3XyX.X:X7X;X2X;X<XqX=X<X<X:X-X=X#X-Xl._ <X-X( ,X*XY Y U C.$.B.S.%.Y B.Y L D.R O.N.` hXhX",
"hXhX#X0 # . w x F h.y.b.n.n.|...;.m. Xu.#X>X=X$X<X$X%X1Xm.$X&X7.7.,X' ' ' $X$X-X' ' ' _ :X` t.Y S @.D.V.V.+.$.L b N.+.Z N.P hXhX",
"hXhX^ , . $ N W ^ N <.n.n.:.&.&.J.&X|.>.J.>.n.n.:.n.>.R.R.8.R.f./ z.| F M k 2 f ( b K m ( ( l.} O.%.P N.B.$.A n k } N.J O.T hXhX",
"hXhXw $   6 x 9 5 w 9 { :./.b.*.;.M.yX'. X X X X}. XXXXX}.}.[.Q.b.Y.Y.b.y.` t.R Y t.U K Y K 4XP L n C.S.N.K A v 3 L %.K I L G hX",
"hX) i & o q 7 N / B <.] ..F &.:.:.z.eXJ.}.}.}.'.'.'. X X{.|.'.W.I.b.f.f.X.G  .| | P P S @.k c.@.}  .Y L Z.D.%.A A K O.} z I I hX",
"hX^ , X & 9 7 x N N [ ..p.y.] I.&.p.rXJ.E.'.}. X}. X}.}.{.Q.I.I.I.:.b.=.X.o.o.} L } } }  .z 4Xk.@. .t.T.S.N.%.O.B.$.} %.K 9.| hX",
"hXs 2 . # : : W W W ] X.G M ..;.[ ,.eXJ.m.|.`.`.'.'.}.}.[.Q.G.:.-.:.a.a.#.#. .}  .L `  .} - c.t.P  .#.A #.Z.A.@.L.@.O.P m w l hX",
"hXa 6 X > , : : 2 p ..X.h.] ] &...,.eXJ.x.eXJ.Q.'.>.'.'.Q.E.J.I.;.f.-...| X.#.L I L ( v.O.v *X .@.U o.T.S.%.U z b k |  .l k 2 hX",
"hXi $ . 7 , ; , 7 l ] ] e D ] ..2.p.tXb.1.eXE.E.>.R.E.E.E.E.I.Y.f.*.*.....a.#.}  .} ( wX#.D 4Xv.}  .#.I Z #.%.O.z A G #.D c 8 8 ",
"hXW $ . e 7 8 x l V S ] 1.M V o.7 { m.p.N 7Xn.n.n.R.E.:.I.b.n.b.*.X.a.#.q.X. . .} } W 4XG E P.c.L | S $.L.#.#.O.z b S I D x 8 k ",
"hX! , o r 7 w V M F D x 8 l M [ r D ;X..w ;Xd.I.n.R.n.b.b.f.&.0.q.X.s.j.q. .#.X.@. .x c.K * k.r.P L o.L z } @.K | S S I M c l 8 ",
"hXV , # M 8 w V W V M / 1.l D F e M 9X[ ~ 0Xp.;.n.>.:.b.b.;.j.c.7Xg.X.#. .o.X.#.#.U 9.6XL - *Xg.K  .S I L. .$.D q. .I  .G D e = ",
"hX[ 6 # C C 7 2 7 l V 8 7 r D | e N ;XZ 2 ;Xy.&.;.4X^.d.a.0.g.d.Y.0XX.X.| q.c.O.$.F c 4Xt.- *Xc.L I I  .z  .#. .l k : A M p 2 = ",
"hX0.q & V l ; 2 c V z F ] x Z F 3 N :XF e ;X....g.^.tXh.X.V ] f.#.5X4XX.X.k.5X8X#.| l 4X#.3 P.*XI L H r.L.#.@.k - : l M k 0 : ; ",
"hXu.r $ [ C C [ C x z 7 e l A F : 8 *XV 7 &XG r F *.^.6X#.l G =.k.c.c.O.G *.%.8XP.G x ;X..3 g.c.S H Z @.Z o.#.L H z z Z v i 2 2 ",
"hXp.V > [ { { &.w.0 x B 0.N 3.e.E x 6XF 2 :Xl.~ M y.| 0X9X0.| ;.=.m.8Xe.g.#.#.4XwXq.h 6Xq.- 5.-XS I H s.L. .L ( r.D M M z s : hX",
"hXh.[ < [ &.<.{ C V V 8 8 5.&X*X( G *X0X0 x.-X&XZ ..| 0.:Xf.*.y. .X.5X*X#.k.] c.8X0X_ 4Xc.l. .0X6X4X^.I m =.] D D x x 8 e p : hX",
"hX4.[ 5 [ p.{ e , 0 V F 1.c k M W N Z c.5.] S X...[ f.a.X.X. .L.=. .e.k.q. .r.#.o.e.s.*X_ X.| #.q.9. .a.=.C.G : 2 : 7 2 7 a > hX",
"hX3.[ q C ;.&.V N F D | M 9./ B w.0.] M q.0.F ..a.q.1.g.q.f.a.s.Y.L.e.#.f.r.a.L.=.*.C.Y.q...S | |  .a.m I C.S l l 8 7 w 0 i ; hX",
"hXz.2.Q r p.[ { V ! ] 9.9.5.D w V F [ | | 1.F G ] 9.| ..9.9.a.q...s.s.q.a.;.X.q.a.s.*.s... .] | G 9.9.q.#.X...| z 8 , , s t ; hX",
"hXhX{ <.q &.[ { V 1.W 1.V x w.w N x x x B c V V M M F V D 9.| G N / ` 0.G | | | G | | G F D D M M L.e.M X.I e.w.0 l 1 < ^ < hXhX",
"hXhX,.<.i { [ { 5 6 9 w F 1.p 0 # : ; $ ; $ $ 4 ; : , , : : , 8 , 8 2 8 2 3 7 2 2 8 8 7 , 3 2 : l r.e.s.| / B x E w 0 p ) : hXhX",
"hXhX,.V s q { r > ; , e N x N w.W M V D V x D F / G ] ] / ( | a.a...0.q.*.q.q.G 9. .9.2.e.q.| G Y.k.B 0.1.N z 7 1 w 0 ) s , hXhX",
"hXhXhXr ,.q C { w 6 w N x x C , 2.N x N 8 N x E W V [ / W W / q.0.0.0.9.0.q.q.( ] / ( 9.9.| G r.9.M 9.1./ e.( x D l x ) 1 hXhXhX",
"hXhXhXQ q a 7 r 6 7 i <.N N B M ! 1.V N x x N W F / G F / / 1.0.1.q.w.0.q.y.y.0.] F G ] 1.G | i.0.9.0.0.e.l.V V N z w.) ; hXhXhX",
"hXhXhXhXe ,.% r q q q q y p [ F 7 y.y.c V E W W F / / / F <.1.2.q.9.q.w.0.e.r.0.9.] G ] V 9.^.W N 0.<.^ / / D V x M &XN 0 hXhXhX",
"hXhXhXhXq q a 6 r r $ $ > e B V <.7 N h.N x W E W V ! / <.1.1.1.0.9.q.w.e.0.e.` 9.9.G / g.j.W 1.0.0.1.8 9 ; W ! x 7.8.x hXhXhXhX",
"hXhXhXhXhX6 s t e E 9 5 9 M N Q V x w q 2./ 0 x W ! ! B 1./ / ( 2.9.q.0.q.q.0.1.1.G q.m.i.w.0.e.q.u.1.<.E ! x N V &Xq B hXhXhXhX",
"hXhXhXhXhXq 6 6.5 q q q 6 s ~ ~ Q W V q <.1.0.W N <.! ! ~ ! / 1.1.] e.2.9.9.9.( ( i.n.c.1.1.i.0.x.c.7.E / / E x &X6.r hXhXhXhXhX",
"hXhXhXhXhXhX5 u 6.5 q 5 6 5 5 y 5 E ! ! e w u.0.c.1.B V E ! ! ~ <.( / G <.0./ c.m.x.c.W y.j.g.w.x ~ E / / W l l.&Xx hXhXhXhXhXhX",
"hXhXhXhXhXhXhX> d ) > 5 5 < # < r Q C ,.,.<.5 s 1.u.m.y.u.<.<./ 2.e.9.l.h././.u.u.W ~ j.i.w.q.q.1.9 i / 1.C z.0X<.W hXhXhXhXhXhX",
"hXhXhXhXhXhXhXq > 6.d 6 q q p < 5 a 8.,.! <.4.<.w / p w.i.i.x.y.m.^.(.g.x.1.0.0./ j.w.w.c.h.q.z.e.9./ / 1.8.tXu.2.hXhXhXhXhXhXhX",
"hXhXhXhXhXhXhXhXq > #X6.q Q q q p ,.,.,.,.Q 3.3.3.1.2.<.w ! N <.x / / q./ w.3.x.h.h.c.i.5.q.u.W 0.0.<.,.z.qXx.1.hXhXhXhXhXhXhXhX",
"hXhXhXhXhXhXhXhXhX5 5 %X6.q s e u % 5 t q ,.4.3.Q 3.2.w.u.y.0.i.0.g.0.^.Y.h.m.h.c.m.u.z.w.r w 3.~ 3.{ 8.pXx.2.hXhXhXhXhXhXhXhXhX",
"hXhXhXhXhXhXhXhXhXhXi 6 %X#Xr p i q < i s i 3.3.4.! W 4.4.<.1.h.p.i.2.h.m.m.x.x._ w.3.^ V ,.,.,.3.5.;XfXm.u.hXhXhXhXhXhXhXhXhXhX",
"hXhXhXhXhXhXhXhXhXhXhX% % #X=Xs 5 u y q s Q 5 q y w 6.z.u.4.u.u.u.h.w.,.x.x.z.z.5.i ! ! p.4.4.z.e.0XpXm.n.hXhXhXhXhXhXhXhXhXhXhX",
"hXhXhXhXhXhXhXhXhXhXhXhXi < f <X%X% 6 u u 5 5 q Q Q Q 3.s s ,.6.8.6.Q 3.Q ~ s 7.3.w.~ x.z.3.,.;XaXtXm.M.hXhXhXhXhXhXhXhXhXhXhXhX",
"hXhXhXhXhXhXhXhXhXhXhXhXhXhX% < %X1X) 5 5 u i u p Q y 5 s Q Q s i s 3.<.<.~ 4.l.z.u.w.u.<.7.3XpX:Xp.m.hXhXhXhXhXhXhXhXhXhXhXhXhX",
"hXhXhXhXhXhXhXhXhXhXhXhXhXhXhX5 $ u <X1X6.u % < u u u s a 3.,.~ w s z.z.i.,.z.8.3.[ ,.8.qXpX>X,.u.hXhXhXhXhXhXhXhXhXhXhXhXhXhXhX",
"hXhXhXhXhXhXhXhXhXhXhXhXhXhXhXhXhX% % f <X1X,Xf < 6 5 q s ,.,.~ 4.,.6.,.,.,.<.<.8.:XpXpX1Xs s 7.hXhXhXhXhXhXhXhXhXhXhXhXhXhXhXhX",
"hXhXhXhXhXhXhXhXhXhXhXhXhXhXhXhXhXhXhX% % t ' 1X2X<X,X%Xd d ~ Q Q 6.6.8.-X1X3XpXpX2X%XQ ,.7.hXhXhXhXhXhXhXhXhXhXhXhXhXhXhXhXhXhX",
"hXhXhXhXhXhXhXhXhXhXhXhXhXhXhXhXhXhXhXhXhX% % % t d ,X<XuXuXuXiXuXiXpXuX2X2X=X6.^ s s hXhXhXhXhXhXhXhXhXhXhXhXhXhXhXhXhXhXhXhXhX",
"hXhXhXhXhXhXhXhXhXhXhXhXhXhXhXhXhXhXhXhXhXhXhXhXt < % < y u d ) f f 6.d a d s ^ hXhXhXhXhXhXhXhXhXhXhXhXhXhXhXhXhXhXhXhXhXhXhXhX",
"hXhXhXhXhXhXhXhXhXhXhXhXhXhXhXhXhXhXhXhXhXhXhXhXhXhXhXhXhXa u f f d 6.hXhXhXhXhXhXhXhXhXhXhXhXhXhXhXhXhXhXhXhXhXhXhXhXhXhXhXhXhX"
};
