/* XPM */
static char *oi3QlKmE[] = {
/* columns rows colors chars-per-pixel */
"32 32 198 2 ",
"   c #4E3C0B",
".  c #533D0B",
"X  c #5A460C",
"o  c #554911",
"O  c #5A4D12",
"+  c #5E5013",
"@  c #674A0A",
"#  c #754E0D",
"$  c #7C5F0F",
"%  c #614A15",
"&  c #6B5C15",
"*  c #645D1A",
"=  c #6A5E19",
"-  c #655512",
";  c #755F13",
":  c #745C13",
">  c #6C641C",
",  c #736215",
"<  c #7C6415",
"1  c #75651B",
"2  c #7B6518",
"3  c #746A1B",
"4  c #7C6B1B",
"5  c #7E6917",
"6  c #6F6623",
"7  c #696428",
"8  c #6E692B",
"9  c #736621",
"0  c #746A23",
"q  c #7A6E22",
"w  c #746B2B",
"e  c #7D7125",
"r  c #7B732C",
"t  c #7A7439",
"y  c #797338",
"u  c #815D0E",
"i  c #826515",
"p  c #8B6512",
"a  c #836C15",
"s  c #8C6B15",
"d  c #836D1A",
"f  c #8A6D18",
"g  c #936C13",
"h  c #996E14",
"j  c #8E7314",
"k  c #85721D",
"l  c #8C741B",
"z  c #8B7A1D",
"x  c #9D7515",
"c  c #92741A",
"v  c #947C1D",
"b  c #9C7C1B",
"n  c #A27515",
"m  c #A97716",
"M  c #A47C16",
"N  c #AA7D16",
"B  c #A37C1A",
"V  c #AB7C19",
"C  c #A07719",
"Z  c #B17F19",
"A  c #80672A",
"S  c #837524",
"D  c #897321",
"F  c #877925",
"G  c #8C7C23",
"H  c #8B7C2B",
"J  c #85782B",
"K  c #937D22",
"L  c #917D2B",
"P  c #977923",
"I  c #857C37",
"U  c #9C7C35",
"Y  c #A17D26",
"T  c #837E42",
"R  c #857E4A",
"E  c #9D811E",
"W  c #99891D",
"Q  c #95851C",
"!  c #A78316",
"~  c #AC8216",
"^  c #A3831C",
"/  c #AB841A",
"(  c #AD8A1C",
")  c #A98A18",
"_  c #B48216",
"`  c #B3821A",
"'  c #BC871B",
"]  c #B48A1B",
"[  c #BC8B1B",
"{  c #BC8517",
"}  c #AD931E",
"|  c #B4921D",
" . c #B49A1C",
".. c #958225",
"X. c #9B8323",
"o. c #94832C",
"O. c #9A852B",
"+. c #9D8A2B",
"@. c #9A8928",
"#. c #998433",
"$. c #9D8A33",
"%. c #A38321",
"&. c #AD8524",
"*. c #A58B24",
"=. c #AB8C23",
"-. c #A38B2A",
";. c #AC8A2E",
":. c #B18E23",
">. c #B28E2E",
",. c #B38625",
"<. c #AC9225",
"1. c #A6912C",
"2. c #AB922C",
"3. c #AD992F",
"4. c #B49321",
"5. c #B59D22",
"6. c #BB9C21",
"7. c #B1962D",
"8. c #B69827",
"9. c #A48A32",
"0. c #AD8B31",
"q. c #A58636",
"w. c #A89534",
"e. c #B39233",
"r. c #B59D34",
"t. c #BB9B32",
"y. c #BA9A39",
"u. c #B29539",
"i. c #BDA323",
"p. c #BEA62A",
"a. c #B2A02D",
"s. c #B9A132",
"d. c #B7A53B",
"f. c #C38D19",
"g. c #C68D18",
"h. c #C4911B",
"j. c #CC931A",
"k. c #D1951A",
"l. c #C4AB1F",
"z. c #C1A31C",
"x. c #CDB21F",
"c. c #C99B20",
"v. c #D49F2F",
"b. c #C4AB24",
"n. c #CAAD23",
"m. c #C1A328",
"M. c #C0AB2A",
"N. c #D3A623",
"B. c #CCB325",
"V. c #C6B52C",
"C. c #CBB42B",
"Z. c #C9BC2E",
"A. c #C8B524",
"S. c #D1BE25",
"D. c #D4BC2C",
"F. c #D1B62A",
"G. c #C7AA3E",
"H. c #C6A837",
"J. c #D9A235",
"K. c #D6A332",
"L. c #C6B33C",
"P. c #CDBB3B",
"I. c #C9B236",
"U. c #D5BD31",
"Y. c #D0BE39",
"T. c #D6C226",
"R. c #D9C323",
"E. c #DECC26",
"W. c #DBC52A",
"Q. c #DBC632",
"!. c #E1D02A",
"~. c #E2CE31",
"^. c #E3CC29",
"/. c #8C864B",
"(. c #988242",
"). c #928A43",
"_. c #97834C",
"`. c #9A854C",
"'. c #998F53",
"]. c #9D9554",
"[. c #A99942",
"{. c #A8934B",
"}. c #B19F47",
"|. c #A39B5A",
" X c #A89A55",
".X c #A28A49",
"XX c #AEA155",
"oX c #AFA45A",
"OX c #B3A652",
"+X c #BAAB4C",
"@X c #C3A445",
"#X c #CBBA41",
"$X c #C4B55D",
"%X c #D6B854",
"&X c #DAC840",
"*X c #FFF87A",
"=X c #FFFE8A",
"-X c None",
/* pixels */
"-X-X-X-X-X-X-X-X-X-X-X-X-X.XT U 0.@X%X-X-X-X-X-X-X-X-X-X-X-X-X-X",
"-X-X-X-X-X-X-X-X-X-X{.A % .     % @ u s P U -X-X-X-X-X-X-X-X-X-X",
"-X-X-X-X-X-X-X-X%XD @ X : u i s h h p # @ % s Z -X-X-X-X-X-X-X-X",
"-X-X-X-X-X-X=X&X$ < 4.m.4.:.B C Y V Z n Z m p u Z J.-X-X-X-X-X-X",
"-X-X-X-X-X*XV.; 8.W.n.m.6.) / N m Z f C Z Y f.Z s n K.-X-X-X-X-X",
"-X-X-X-X*Xi.d D.U.C.B.n.n.B.j.] f.' Z V m m Z Z g.C C K.-X-X-X-X",
"-X-X-X=XZ.s U.U.p.i.D.~.n.4.( M h g g h Z f.m V k.k.B V J.-X-X-X",
"-X-X-XP.a n.b.5.n.W.F.b.n.n.z.] N x g g h V g.j.Z Z k.N { -X-X-X",
"-X-XL.< } V.b.l.Z.B.B.W.E.T.x.z.) x h x n h m c.h.f.j.c./ g.-X-X",
"-X-Xk - <.} 5.T.S.M.Q.^.~.#XP.I.t.&.^ b B ,.n / N.f.M f.f._ -X-X",
"-XH o 1 } 5.A.i.V.p.oX+X X X X X{.`._.(._.(.0.N ` g.{ N _ _ ` -X",
"-X= o k q ..i. .s.Q.A.C.A.T.V.M.<.<.v P P x Y &.m f.f.g g _ M -X",
"-XO O d k K *.} a.Q.R.E.E.!.E.B.b. .] ~ ~ ~ x >./ ] j._ / _ b -X",
"J O - = S ( E ) 1.+XI.T.S.T.S.l.i.} ( ( B &.b >.~ ] h._ V ~ f 2 ",
"J o & ; a b l b @.r.3.Z.b.x.A.i.| <.( ( M 0.Y e.~ / ] ~ s B f < ",
"L - 2 k l l k j z 1.$.p.i.i. .7.t.| / ] ! 0.x ;.! B / / b B c < ",
"+.& 4 : a l f j l #.o.<.s.G.^ <.G.:.( H.M 0.b u.B B ] M < f a & ",
"3.3 z Q v d l P D 9.L o.E @X-.! t.y./ H.>.q.K 0.^ ^ ( ^ c g i = ",
"3.z W Q 5 l G #.P w.O.9.^ <.t.| 4.y.=.:.y.u.-.>.y.,.] c 2 2 1 = ",
"-XF W Q l E E l K b ^ Q ( ( =.4.4.:.:.4.| 6.( b ^ ^ ] b < , 9 -X",
"-XF Q Q 4 k v k , , 2 2 5 a d f f v j l c c l i %.=.B P 4 1 w -X",
"-X..q 4 = 5 k k D d 4 k z v D %.*.%.=.X.b K b ^ =.X.X.d 2 S 9 -X",
"-X-Xq 3 3 3 4 l K E d D P K K X.*.*.;.=.E b %.-.b ..X.G l L -X-X",
"-X-X3 > 4 * 3 K k D K k l G X.X.*.*.*.%.X.*.2.X.1...4 d o.L -X-X",
"-X-X-X0 e > 3 0 e k z ..@.K G G K X.*.-.2.2.-.<.O.L l L #.-X-X-X",
"-X-X-X> r 0 > * e o.G G X.+.-.@.2.7.w.2.+.-.7.=.K l +.}.O.-X-X-X",
"-X-X-X-X> t J 3 6 e J @.G X...@.*.7.2.2.r.2.X.L ..$.oX1.-X-X-X-X",
"-X-X-X-X-X> t o.> > e S S +.-.1.3.-.3.w.o.o.....w.$Xs.-X-X-X-X-X",
"-X-X-X-X-X-X> y T r 6 = e e J H H O.G o.@.@.w.oX$Xd.-X-X-X-X-X-X",
"-X-X-X-X-X-X-X-X7 T /.y w 6 e F e ..o.w.[.XX|.).-X-X-X-X-X-X-X-X",
"-X-X-X-X-X-X-X-X-X-X7 t /././.].].].].|.].).-X-X-X-X-X-X-X-X-X-X",
"-X-X-X-X-X-X-X-X-X-X-X-X-X8 y T /.)./.-X-X-X-X-X-X-X-X-X-X-X-X-X"
};
