/* XPM */
static char *QyzeeXoU[] = {
/* columns rows colors chars-per-pixel */
"16 16 198 2 ",
"   c #665715",
".  c #695917",
"X  c #63561A",
"o  c #6D561E",
"O  c #705E15",
"+  c #6E601A",
"@  c #706319",
"#  c #70641B",
"$  c #70621C",
"%  c #7A6518",
"&  c #7C6518",
"*  c #756A1F",
"=  c #7F6B19",
"-  c #7F6E1B",
";  c #7B691D",
":  c #6C5623",
">  c #736622",
",  c #756B23",
"<  c #766E2E",
"1  c #797129",
"2  c #7B702A",
"3  c #7C732B",
"4  c #736D37",
"5  c #787334",
"6  c #7C773F",
"7  c #896313",
"8  c #816B17",
"9  c #8C6813",
"0  c #8C6E17",
"q  c #8D6E17",
"w  c #876C18",
"e  c #916712",
"r  c #976D12",
"t  c #976D13",
"y  c #966E19",
"u  c #8E7617",
"i  c #837019",
"p  c #87711A",
"a  c #82701D",
"s  c #87721E",
"d  c #8A731A",
"f  c #8B721B",
"g  c #8C7119",
"h  c #8F761B",
"j  c #8A751D",
"k  c #89741F",
"l  c #86781C",
"z  c #8F781C",
"x  c #8F7A1F",
"c  c #9D7411",
"v  c #957419",
"b  c #947719",
"n  c #967A1A",
"m  c #92781D",
"M  c #937B1F",
"N  c #9B7818",
"B  c #9A781D",
"V  c #9E781F",
"C  c #9B7E1D",
"Z  c #997D1F",
"A  c #A57B17",
"S  c #A77E15",
"D  c #A97815",
"F  c #AA7C15",
"G  c #AB7C17",
"H  c #A97C1C",
"J  c #B07B15",
"K  c #B07E16",
"L  c #B17F1A",
"P  c #856720",
"I  c #837623",
"U  c #847522",
"Y  c #8A7720",
"T  c #877820",
"R  c #8F7A20",
"E  c #8E7A26",
"W  c #897D2C",
"Q  c #907A21",
"!  c #947B22",
"~  c #92732D",
"^  c #947D2A",
"/  c #997A28",
"(  c #85713D",
")  c #997F32",
"_  c #9E7E31",
"`  c #93841C",
"'  c #9B801F",
"]  c #AA8517",
"[  c #A78119",
"{  c #A4811A",
"}  c #AA831A",
"|  c #AC8319",
" . c #A58B1E",
".. c #AE881A",
"X. c #B18217",
"o. c #B1821B",
"O. c #B5861A",
"+. c #B5861B",
"@. c #BD8719",
"#. c #B48A1B",
"$. c #B6891C",
"%. c #B98918",
"&. c #BB8A1A",
"*. c #BC8A18",
"=. c #BF8C1A",
"-. c #AC941E",
";. c #B59016",
":. c #B99B1B",
">. c #928025",
",. c #938125",
"<. c #958126",
"1. c #978226",
"2. c #978327",
"3. c #938424",
"4. c #988123",
"5. c #988025",
"6. c #9B8027",
"7. c #9C8324",
"8. c #9B8526",
"9. c #9F8A21",
"0. c #91832E",
"q. c #99852F",
"w. c #9C872C",
"e. c #9D8829",
"r. c #9F8929",
"t. c #9A8B34",
"y. c #9F903B",
"u. c #A78321",
"i. c #A68023",
"p. c #A38520",
"a. c #A08422",
"s. c #A28622",
"d. c #A38525",
"f. c #AA8420",
"g. c #A98324",
"h. c #A88527",
"j. c #A38A27",
"k. c #A68924",
"l. c #A58B25",
"z. c #A68B26",
"x. c #AF8F23",
"c. c #A98824",
"v. c #AE8B24",
"b. c #A4852C",
"n. c #A08A28",
"m. c #A98F29",
"M. c #AB8B2D",
"N. c #B08E24",
"B. c #B18F24",
"V. c #BF8F26",
"C. c #BB8E2A",
"Z. c #A9912A",
"A. c #AF9128",
"S. c #AA922D",
"D. c #AA942F",
"F. c #B29225",
"G. c #B29C25",
"H. c #B4932A",
"J. c #B8952A",
"K. c #B29B28",
"L. c #B8982F",
"P. c #A9933A",
"I. c #AA983E",
"U. c #B59930",
"Y. c #BBA423",
"T. c #BBA125",
"R. c #B7A131",
"E. c #BAA833",
"W. c #C28B19",
"Q. c #C5921B",
"!. c #C6A423",
"~. c #C1A624",
"^. c #C5AD22",
"/. c #C4A924",
"(. c #C9AC21",
"). c #C9B224",
"_. c #C4B02F",
"`. c #CBB529",
"'. c #CDB72A",
"]. c #D1BB21",
"[. c #D2B629",
"{. c #D1B828",
"}. c #C4AC31",
"|. c #C5B63A",
" X c #C0B03F",
".X c #D3BD31",
"XX c #D5C227",
"oX c #DBC822",
"OX c #D3C033",
"+X c #8B8445",
"@X c #958D4C",
"#X c #9B924C",
"$X c #9A924E",
"%X c #A39749",
"&X c #B5A242",
"*X c #BAAA40",
"=X c #D9C654",
"-X c None",
/* pixels */
"-X-X-X-X-X( : o P / ~ -X-X-X-X-X",
"-X-X-X-X6.g q 9 t e 7 y -X-X-X-X",
"-X-X=XK.~.[.!.#.o.H L J G C.-X-X",
"-X-XG./.'.{.(.;.c t D @.W.+.V.-X",
"-XY -.).`..XOX}.c./ / +.Q.=.&.-X",
"-X. 9.Y._.|. X*XP.q./ H *.K G X.",
"X   M  .E.XXoX].:.| S g.#.%.A v ",
"+ O h u e.R.^.T.F.O.u.h.| | N w ",
"T 8 g j ^ e.U.A.L.J.M.b.} [ g & ",
"3.` x ! 2.6.a.x.B.x.H.d.v.{ & + ",
"-Xl - j = 8 g M ' C n v p.Z ; > ",
"-X* # 8 x k R 4.l.l.a.k.8.U E -X",
"-X-X, # U >.2.2.k.Z.Z.Z.Q q.-X-X",
"-X-X2 3 , I >.n.Z.D.e.2.I.&X-X-X",
"-X-X-X-X5 < 2 W 0.t.P.#X-X-X-X-X",
"-X-X-X-X-X4 6 +X@X$X#X-X-X-X-X-X"
};
